# Blender 5.0.1
# www.blender.org
mtllib vehicle.mtl
o Cylinder
v 0.000000 -0.174350 -0.751824
v 0.000000 0.174350 -0.597340
v 0.000000 -0.174350 0.751824
v 0.000000 0.174350 0.597340
v -0.531620 -0.174350 0.531620
v -0.201008 0.407120 0.243671
v -0.751824 -0.174350 0.000000
v -0.319302 0.407120 0.000000
v -0.531620 -0.174350 -0.531620
v -0.201008 0.407120 -0.243671
v 0.000000 -0.064323 1.000000
v 0.000000 0.064323 1.000000
v -0.707107 -0.064323 0.707107
v -0.707107 0.064323 0.707107
v -1.000000 -0.064323 0.000000
v -1.000000 0.064323 0.000000
v -0.707107 -0.064323 -0.707107
v -0.707107 0.064323 -0.707107
v 0.000000 0.174350 -0.751824
v 0.000000 0.174350 0.751824
v -0.531620 0.174350 0.531620
v -0.751824 0.174350 0.000000
v -0.531620 0.174350 -0.531620
v 0.000000 -0.316093 -0.180559
v 0.000000 -0.407208 -0.479679
v 0.000000 -0.316093 0.180559
v 0.000000 -0.407208 0.479679
v -0.127675 -0.316093 0.127675
v -0.339184 -0.407208 0.339184
v -0.180559 -0.316093 0.000000
v -0.479679 -0.407208 0.000000
v -0.127675 -0.316093 -0.127675
v -0.339184 -0.407208 -0.339184
v -0.422383 0.174350 0.422383
v -0.597340 0.174350 0.000000
v 0.000000 0.407120 0.421427
v -0.422383 0.174350 -0.422383
v 0.000000 0.407120 -0.421427
v 0.000000 0.407120 -0.297708
v 0.000000 0.407120 0.297708
v -0.309036 0.407120 0.332421
v -0.446729 0.407120 0.000000
v -0.309036 0.407120 -0.332421
v 0.000000 0.163879 -0.297708
v 0.000000 0.163879 0.297708
v -0.201008 0.163879 0.243671
v -0.319302 0.163879 0.000000
v -0.201008 0.163879 -0.243671
v -0.707107 -0.064323 -0.973324
v -0.707107 0.064323 -0.973324
v -0.353553 -0.119337 -0.729466
v -0.353553 0.119337 -0.729466
v -0.353553 -0.059668 -0.729466
v -0.353553 0.059668 -0.729466
v -0.530330 0.000000 -0.851395
v 0.000000 0.059668 -0.751824
v 0.000000 -0.059668 -0.751824
v 0.000000 -0.046299 -0.528489
v 0.000000 0.000000 -0.528489
v -0.274334 0.046299 -0.511140
v -0.274334 0.000000 -0.511140
v -0.411501 0.000000 -0.605749
v -0.274334 -0.046299 -0.511140
v 0.000000 0.046299 -0.528489
v -0.174728 0.575439 0.211813
v -0.277556 0.575439 -0.000000
v -0.174728 0.575439 -0.211813
v 0.000000 0.575439 -0.258786
v 0.000000 0.575439 0.258786
v -0.093341 0.672469 0.113151
v -0.148272 0.672469 -0.000000
v -0.093341 0.672469 -0.113151
v 0.000000 0.672469 -0.138244
v 0.000000 0.672469 0.138244
v 0.000000 0.717846 -0.000000
v 0.531620 -0.174350 0.531620
v 0.201008 0.407120 0.243671
v 0.751824 -0.174350 0.000000
v 0.319302 0.407120 0.000000
v 0.531620 -0.174350 -0.531620
v 0.201008 0.407120 -0.243671
v 0.707107 -0.064323 0.707107
v 0.707107 0.064323 0.707107
v 1.000000 -0.064323 0.000000
v 1.000000 0.064323 0.000000
v 0.707107 -0.064323 -0.707107
v 0.707107 0.064323 -0.707107
v 0.531620 0.174350 0.531620
v 0.751824 0.174350 0.000000
v 0.531620 0.174350 -0.531620
v 0.127675 -0.316093 0.127675
v 0.339184 -0.407208 0.339184
v 0.180559 -0.316093 0.000000
v 0.479679 -0.407208 0.000000
v 0.127675 -0.316093 -0.127675
v 0.339184 -0.407208 -0.339184
v 0.422383 0.174350 0.422383
v 0.597340 0.174350 0.000000
v 0.422383 0.174350 -0.422383
v 0.309036 0.407120 0.332421
v 0.446729 0.407120 0.000000
v 0.309036 0.407120 -0.332421
v 0.201008 0.163879 0.243671
v 0.319302 0.163879 0.000000
v 0.201008 0.163879 -0.243671
v 0.707107 -0.064323 -0.973324
v 0.707107 0.064323 -0.973324
v 0.353553 -0.119337 -0.729466
v 0.353553 0.119337 -0.729466
v 0.353553 -0.059668 -0.729466
v 0.353553 0.059668 -0.729466
v 0.530330 0.000000 -0.851395
v 0.274334 0.046299 -0.511140
v 0.274334 0.000000 -0.511140
v 0.411501 0.000000 -0.605749
v 0.274334 -0.046299 -0.511140
v 0.174728 0.575439 0.211813
v 0.277556 0.575439 -0.000000
v 0.174728 0.575439 -0.211813
v 0.093341 0.672469 0.113151
v 0.148272 0.672469 -0.000000
v 0.093341 0.672469 -0.113151
v 0.000000 0.163879 0.000000
vn -0.0000 0.4919 0.8706
vn -0.6156 -0.4919 0.6156
vn -0.0000 -0.4919 0.8707
vn -0.6156 0.4919 0.6156
vn -0.8707 -0.4919 -0.0000
vn 1.0000 -0.0000 -0.0000
vn 0.4976 0.6245 0.6020
vn 0.6371 -0.0000 0.7708
vn -0.8707 0.4919 -0.0000
vn -0.7386 -0.6381 -0.2174
vn -0.0000 -0.0000 -1.0000
vn 0.0164 -0.6416 -0.7668
vn 0.2934 -0.0000 -0.9560
vn -0.0000 -0.8622 0.5066
vn -0.3582 -0.8622 0.3582
vn -0.0000 0.9668 0.2555
vn -0.5066 -0.8622 -0.0000
vn -0.2555 0.9668 -0.0000
vn -0.1807 0.9668 0.1807
vn -0.3582 -0.8622 -0.3582
vn -0.7386 0.6381 -0.2174
vn -0.1807 0.9668 -0.1807
vn -0.0000 0.6946 -0.7194
vn 0.0164 0.6416 -0.7668
vn -0.0000 0.9296 0.3685
vn -0.3758 0.9267 -0.0000
vn -0.2746 0.9235 0.2679
vn -0.0000 0.9296 -0.3685
vn -0.2746 0.9235 -0.2679
vn -0.2213 -0.9498 0.2213
vn -0.3130 -0.9498 -0.0000
vn 0.1293 -0.9831 -0.1293
vn 0.1829 -0.9831 -0.0000
vn -0.2213 -0.9498 -0.2213
vn 0.1293 -0.9831 0.1293
vn -0.0000 -0.4719 -0.8817
vn -0.0000 -0.9498 -0.3129
vn -0.0000 -0.9831 0.1829
vn -0.0000 -0.9498 0.3130
vn -0.0000 -0.9831 -0.1829
vn -0.3859 0.8231 0.4167
vn -0.0000 0.8633 0.5047
vn -0.5595 0.8289 -0.0000
vn -0.3859 0.8231 -0.4167
vn -0.0000 1.0000 -0.0000
vn 0.4976 0.6245 -0.6020
vn -0.0000 0.6531 -0.7573
vn -0.0000 0.8633 -0.5047
vn 0.6371 -0.0000 -0.7708
vn -0.0000 -0.0000 1.0000
vn -0.0000 0.6531 0.7573
vn 0.7840 0.6207 -0.0000
vn -0.0000 -0.9982 -0.0598
vn 0.1204 -0.9872 -0.1042
vn 0.2961 -0.9408 -0.1651
vn -0.4071 0.5174 -0.7527
vn -0.4071 -0.5174 -0.7527
vn 0.5678 -0.0000 -0.8232
vn 0.9002 -0.0000 -0.4355
vn 0.2354 -0.0000 -0.9719
vn 0.2670 -0.0000 -0.9637
vn -0.0000 0.9982 -0.0598
vn 0.1204 0.9872 -0.1042
vn 0.2961 0.9408 -0.1651
vn -0.0000 0.2253 0.9743
vn -0.5474 0.5117 0.6622
vn -0.6187 0.2383 0.7486
vn -0.5474 0.5117 -0.6622
vn -0.0000 0.2253 -0.9743
vn -0.6187 0.2383 -0.7486
vn -0.8585 0.5129 -0.0000
vn -0.9706 0.2407 -0.0000
vn -0.4907 0.8714 -0.0000
vn -0.3138 0.8703 -0.3795
vn -0.0000 0.5083 0.8612
vn -0.3138 0.8703 0.3795
vn -0.0000 0.5083 -0.8612
vn -0.0000 0.8662 0.4996
vn -0.0000 0.8662 -0.4996
vn 0.6156 -0.4919 0.6156
vn 0.8707 -0.4919 -0.0000
vn 0.6156 0.4919 0.6156
vn -0.4976 0.6245 0.6020
vn -1.0000 -0.0000 -0.0000
vn -0.6371 -0.0000 0.7708
vn 0.7386 -0.6381 -0.2174
vn 0.8707 0.4919 -0.0000
vn -0.0164 -0.6416 -0.7668
vn -0.2934 -0.0000 -0.9560
vn 0.3582 -0.8622 0.3582
vn 0.1807 0.9668 0.1807
vn 0.5066 -0.8622 -0.0000
vn 0.2555 0.9668 -0.0000
vn 0.3582 -0.8622 -0.3582
vn 0.7386 0.6381 -0.2174
vn 0.1807 0.9668 -0.1807
vn -0.0164 0.6416 -0.7668
vn 0.2746 0.9235 0.2679
vn 0.3758 0.9267 -0.0000
vn 0.2746 0.9235 -0.2679
vn 0.2213 -0.9498 0.2213
vn 0.3130 -0.9498 -0.0000
vn -0.1293 -0.9831 -0.1293
vn -0.1829 -0.9831 -0.0000
vn 0.2213 -0.9498 -0.2213
vn -0.1293 -0.9831 0.1293
vn 0.3859 0.8231 0.4167
vn 0.5595 0.8289 -0.0000
vn 0.3859 0.8231 -0.4167
vn -0.4976 0.6245 -0.6020
vn -0.6371 -0.0000 -0.7708
vn -0.7840 0.6207 -0.0000
vn -0.1204 -0.9872 -0.1042
vn -0.2961 -0.9408 -0.1651
vn 0.4071 0.5174 -0.7527
vn 0.4071 -0.5174 -0.7527
vn -0.5678 -0.0000 -0.8232
vn -0.9002 -0.0000 -0.4355
vn -0.2670 -0.0000 -0.9637
vn -0.2354 -0.0000 -0.9719
vn -0.1204 0.9872 -0.1042
vn -0.2961 0.9408 -0.1651
vn 0.5474 0.5117 0.6622
vn 0.5474 0.5117 -0.6622
vn 0.6187 0.2383 -0.7486
vn 0.6187 0.2383 0.7486
vn 0.8585 0.5129 -0.0000
vn 0.9706 0.2407 -0.0000
vn 0.4907 0.8714 -0.0000
vn 0.3138 0.8703 0.3795
vn 0.3138 0.8703 -0.3795
vt 0.737380 0.206596
vt 0.598031 0.131142
vt 0.746608 0.161645
vt 0.588802 0.176094
vt 0.335737 0.077294
vt 0.092733 0.625253
vt 0.014684 0.538340
vt 0.092733 0.538340
vt 0.326508 0.122245
vt 0.113375 0.031643
vt 0.789258 0.093022
vt 0.694929 0.113243
vt 0.694929 0.093022
vt 0.095512 0.445074
vt 0.158144 0.214871
vt 0.204143 0.284636
vt 0.216467 0.454740
vt 0.231288 0.689094
vt 0.134215 0.454740
vt 0.394403 0.248003
vt 0.411208 0.166145
vt 0.465642 0.703915
vt 0.289449 0.630933
vt 0.624605 0.310635
vt 0.554840 0.356634
vt 0.699996 0.689094
vt 0.465642 0.786167
vt 0.608039 0.428764
vt 0.641835 0.630933
vt 0.714816 0.454740
vt 0.707406 0.571917
vt 0.267668 0.454740
vt 0.465642 0.652714
vt 0.325653 0.594729
vt 0.663616 0.454740
vt 0.605631 0.594729
vt 0.579683 0.866175
vt 0.700542 0.719088
vt 0.700559 0.816081
vt 0.655079 0.941543
vt 0.700579 0.922687
vt 0.821454 0.866131
vt 0.890026 0.797535
vt 0.746086 0.941527
vt 0.968541 0.986991
vt 0.871548 0.987008
vt 0.764942 0.987027
vt 0.432639 0.987087
vt 0.529632 0.987070
vt 0.636239 0.987050
vt 0.879550 0.306901
vt 0.745356 0.236374
vt 0.879550 0.236374
vt 0.879550 0.378387
vt 0.745356 0.306901
vt 0.745356 0.450604
vt 0.745356 0.378387
vt 0.879550 0.450604
vt 0.745356 0.523424
vt 0.012946 0.180611
vt 0.077444 0.258798
vt 0.012946 0.276137
vt 0.952055 0.306901
vt 0.952055 0.236374
vt 0.952055 0.378387
vt 0.952055 0.450604
vt 0.879550 0.523424
vt 0.092733 0.778954
vt 0.014684 0.712167
vt 0.092733 0.712167
vt 0.092733 0.471553
vt 0.014684 0.471553
vt 0.014684 0.625253
vt 0.216039 0.424509
vt 0.342627 0.391395
vt 0.379182 0.424509
vt 0.788227 0.689094
vt 0.712414 0.328662
vt 0.591473 0.546894
vt 0.549375 0.051001
vt 0.622152 0.072800
vt 0.549375 0.094599
vt 0.694929 0.032358
vt 0.789258 0.052579
vt 0.694929 0.052579
vt 0.405922 0.370031
vt 0.492513 0.370031
vt 0.012913 0.057864
vt 0.104146 0.076594
vt 0.342627 0.370031
vt 0.342627 0.348667
vt 0.216039 0.391395
vt 0.216039 0.370031
vt 0.216039 0.315553
vt 0.216039 0.348667
vt 0.379182 0.315553
vt 0.375052 0.869626
vt 0.311149 0.809439
vt 0.350209 0.777218
vt 0.165228 0.809439
vt 0.101325 0.869626
vt 0.126167 0.777218
vt 0.238188 0.774019
vt 0.238188 0.722835
vt 0.238188 0.818552
vt 0.199212 0.837474
vt 0.327329 0.869626
vt 0.277164 0.837474
vt 0.149047 0.869626
vt 0.238188 0.869626
vt 0.285808 0.869626
vt 0.190569 0.869626
vt 0.511086 0.797603
vt 0.952055 0.523424
vt 0.789258 0.013714
vt 0.115401 0.180612
vt 0.077444 0.102425
vt 0.012946 0.085086
vt 0.789258 0.131886
vt 0.013654 0.428268
vt 0.014684 0.778954
vt 0.022141 0.012913
s 1
usemtl 1
f 12/1/1 13/2/2 11/3/3
f 14/4/4 15/5/5 13/2/2
f 8/6/6 48/7/7 10/8/8
f 16/9/9 17/10/10 15/5/5
f 57/11/11 51/12/12 53/13/13
f 3/14/14 13/15/2 5/16/15
f 20/17/16 14/18/4 12/19/1
f 7/20/17 13/15/2 15/21/5
f 22/22/18 14/18/4 21/23/19
f 7/20/17 17/24/10 9/25/20
f 22/22/18 18/26/21 16/27/9
f 9/25/20 17/24/10 51/28/12
f 23/29/22 19/30/23 52/31/24
f 4/32/25 21/23/19 20/17/16
f 35/33/26 21/23/19 34/34/27
f 35/33/26 23/29/22 22/22/18
f 2/35/28 23/29/22 37/36/29
f 29/37/30 7/38/17 31/39/31
f 28/40/32 31/39/31 30/41/33
f 33/42/34 7/38/17 9/43/20
f 30/41/33 33/42/34 32/44/35
f 33/42/34 1/45/36 25/46/37
f 32/44/35 25/46/37 24/47/38
f 3/48/14 29/37/30 27/49/39
f 24/47/38 26/50/40 28/40/32
f 41/51/41 4/52/25 36/53/42
f 42/54/43 34/55/27 41/51/41
f 42/54/43 37/56/29 35/57/26
f 43/58/44 2/59/28 37/56/29
f 123/60/45 46/61/46 45/62/47
f 6/63/45 36/53/42 40/64/45
f 8/65/45 41/51/41 6/63/45
f 8/65/45 43/58/44 42/54/43
f 10/66/45 38/67/48 43/58/44
f 40/68/11 46/69/46 6/70/49
f 39/71/50 48/7/7 44/72/51
f 6/70/49 47/73/52 8/6/6
f 56/74/53 60/75/54 54/76/55
f 50/77/56 18/26/21 52/31/24
f 49/78/57 51/28/12 17/24/10
f 1/79/36 9/25/20 51/28/12
f 50/80/56 55/81/58 49/82/57
f 52/83/24 55/81/58 50/80/56
f 18/26/21 23/29/22 52/31/24
f 52/83/24 56/84/11 54/85/13
f 54/76/55 62/86/59 55/87/59
f 50/88/56 17/10/10 18/89/21
f 51/12/12 55/81/58 53/13/13
f 62/86/58 60/75/60 61/90/61
f 63/91/60 62/86/58 61/90/61
f 64/92/11 61/90/61 60/75/60
f 59/93/11 63/91/60 61/90/61
f 57/94/62 63/91/63 58/95/62
f 53/96/64 62/86/59 63/91/63
f 40/97/65 65/98/66 6/99/67
f 67/100/68 39/101/69 10/102/70
f 6/99/67 66/103/71 8/104/72
f 10/102/70 66/103/71 67/100/68
f 67/100/68 71/105/73 72/106/74
f 69/107/75 70/108/76 65/98/66
f 72/106/74 68/109/77 67/100/68
f 65/98/66 71/105/73 66/103/71
f 72/106/74 71/105/73 75/110/45
f 74/111/78 75/110/45 70/108/76
f 72/106/74 75/110/45 73/112/79
f 70/108/76 75/110/45 71/105/73
f 26/50/40 29/37/30 28/40/32
f 82/2/80 12/1/1 11/3/3
f 84/5/81 83/4/82 82/2/80
f 105/7/83 79/6/84 81/8/85
f 86/10/86 85/9/87 84/5/81
f 108/12/88 57/11/11 110/13/89
f 82/15/80 3/14/14 76/16/90
f 20/17/16 83/18/82 88/23/91
f 78/20/92 82/15/80 76/16/90
f 83/18/82 89/22/93 88/23/91
f 86/24/86 78/20/92 80/25/94
f 89/22/93 87/26/95 90/29/96
f 80/25/94 108/28/88 86/24/86
f 90/29/96 109/31/97 19/30/23
f 4/32/25 88/23/91 97/34/98
f 88/23/91 98/33/99 97/34/98
f 98/33/99 90/29/96 99/36/100
f 90/29/96 2/35/28 99/36/100
f 78/38/92 92/37/101 94/39/102
f 94/39/102 91/40/103 93/41/104
f 96/42/105 78/38/92 94/39/102
f 96/42/105 93/41/104 95/44/106
f 1/45/36 96/42/105 25/46/37
f 25/46/37 95/44/106 24/47/38
f 3/48/14 92/37/101 76/113/90
f 93/41/104 26/50/40 24/47/38
f 4/52/25 100/51/107 36/53/42
f 97/55/98 101/54/108 100/51/107
f 101/54/108 99/56/100 102/58/109
f 102/58/109 2/59/28 38/67/48
f 123/60/45 45/62/47 103/61/110
f 36/53/42 77/63/45 40/64/45
f 100/51/107 79/65/45 77/63/45
f 79/65/45 102/58/109 81/66/45
f 81/66/45 38/67/48 39/114/45
f 103/69/110 40/68/11 77/70/111
f 39/71/50 105/7/83 81/8/85
f 104/73/112 77/70/111 79/6/84
f 113/75/113 56/74/53 111/76/114
f 107/77/115 109/31/97 87/26/95
f 106/78/116 86/24/86 108/28/88
f 1/79/36 108/28/88 80/25/94
f 107/80/115 106/82/116 112/81/117
f 112/81/117 109/83/97 107/80/115
f 87/26/95 109/31/97 90/29/96
f 109/83/97 56/84/11 19/115/23
f 115/86/118 111/76/114 112/87/118
f 86/10/86 107/88/115 87/89/95
f 108/12/88 112/81/117 106/82/116
f 115/86/117 114/90/119 113/75/120
f 116/91/120 114/90/119 115/86/117
f 114/90/119 64/92/11 113/75/120
f 116/91/120 59/93/11 114/90/119
f 57/94/62 116/91/121 110/96/122
f 110/96/122 115/86/118 112/87/118
f 40/97/65 117/98/123 69/107/75
f 39/101/69 119/100/124 81/102/125
f 77/99/126 118/103/127 117/98/123
f 81/102/125 118/103/127 79/104/128
f 119/100/124 121/105/129 118/103/127
f 69/107/75 120/108/130 74/111/78
f 68/109/77 122/106/131 119/100/124
f 117/98/123 121/105/129 120/108/130
f 122/106/131 75/110/45 121/105/129
f 74/111/78 120/108/130 75/110/45
f 122/106/131 73/112/79 75/110/45
f 120/108/130 121/105/129 75/110/45
f 92/37/101 26/50/40 91/40/103
f 123/60/45 47/116/52 46/61/46
f 48/117/7 47/116/52 123/60/45
f 44/118/51 48/117/7 123/60/45
f 123/60/45 103/61/110 104/116/112
f 123/60/45 104/116/112 105/117/83
f 44/118/51 123/60/45 105/117/83
f 12/1/1 14/4/4 13/2/2
f 14/4/4 16/9/9 15/5/5
f 8/6/6 47/73/52 48/7/7
f 16/9/9 18/89/21 17/10/10
f 57/11/11 1/119/36 51/12/12
f 3/14/14 11/120/3 13/15/2
f 20/17/16 21/23/19 14/18/4
f 7/20/17 5/16/15 13/15/2
f 22/22/18 16/27/9 14/18/4
f 7/20/17 15/21/5 17/24/10
f 22/22/18 23/29/22 18/26/21
f 4/32/25 34/34/27 21/23/19
f 35/33/26 22/22/18 21/23/19
f 35/33/26 37/36/29 23/29/22
f 2/35/28 19/30/23 23/29/22
f 29/37/30 5/113/15 7/38/17
f 28/40/32 29/37/30 31/39/31
f 33/42/34 31/39/31 7/38/17
f 30/41/33 31/39/31 33/42/34
f 33/42/34 9/43/20 1/45/36
f 32/44/35 33/42/34 25/46/37
f 3/48/14 5/113/15 29/37/30
f 30/41/33 32/44/35 28/40/32
f 32/44/35 24/47/38 28/40/32
f 41/51/41 34/55/27 4/52/25
f 42/54/43 35/57/26 34/55/27
f 42/54/43 43/58/44 37/56/29
f 43/58/44 38/67/48 2/59/28
f 6/63/45 41/51/41 36/53/42
f 8/65/45 42/54/43 41/51/41
f 8/65/45 10/66/45 43/58/44
f 10/66/45 39/114/45 38/67/48
f 40/68/11 45/121/47 46/69/46
f 39/71/50 10/8/8 48/7/7
f 6/70/49 46/69/46 47/73/52
f 56/74/53 64/92/53 60/75/54
f 52/83/24 54/85/13 55/81/58
f 52/83/24 19/115/23 56/84/11
f 54/76/55 60/75/54 62/86/59
f 50/88/56 49/122/57 17/10/10
f 51/12/12 49/82/57 55/81/58
f 64/92/11 59/93/11 61/90/61
f 59/93/11 58/95/11 63/91/60
f 57/94/62 53/96/64 63/91/63
f 53/96/64 55/87/59 62/86/59
f 40/97/65 69/107/75 65/98/66
f 67/100/68 68/109/77 39/101/69
f 6/99/67 65/98/66 66/103/71
f 10/102/70 8/104/72 66/103/71
f 67/100/68 66/103/71 71/105/73
f 69/107/75 74/111/78 70/108/76
f 72/106/74 73/112/79 68/109/77
f 65/98/66 70/108/76 71/105/73
f 26/50/40 27/49/39 29/37/30
f 82/2/80 83/4/82 12/1/1
f 84/5/81 85/9/87 83/4/82
f 105/7/83 104/73/112 79/6/84
f 86/10/86 87/89/95 85/9/87
f 108/12/88 1/119/36 57/11/11
f 82/15/80 11/120/3 3/14/14
f 20/17/16 12/19/1 83/18/82
f 78/20/92 84/21/81 82/15/80
f 83/18/82 85/27/87 89/22/93
f 86/24/86 84/21/81 78/20/92
f 89/22/93 85/27/87 87/26/95
f 4/32/25 20/17/16 88/23/91
f 88/23/91 89/22/93 98/33/99
f 98/33/99 89/22/93 90/29/96
f 90/29/96 19/30/23 2/35/28
f 78/38/92 76/113/90 92/37/101
f 94/39/102 92/37/101 91/40/103
f 96/42/105 80/43/94 78/38/92
f 96/42/105 94/39/102 93/41/104
f 1/45/36 80/43/94 96/42/105
f 25/46/37 96/42/105 95/44/106
f 3/48/14 27/49/39 92/37/101
f 24/47/38 95/44/106 93/41/104
f 93/41/104 91/40/103 26/50/40
f 4/52/25 97/55/98 100/51/107
f 97/55/98 98/57/99 101/54/108
f 101/54/108 98/57/99 99/56/100
f 102/58/109 99/56/100 2/59/28
f 36/53/42 100/51/107 77/63/45
f 100/51/107 101/54/108 79/65/45
f 79/65/45 101/54/108 102/58/109
f 81/66/45 102/58/109 38/67/48
f 103/69/110 45/121/47 40/68/11
f 39/71/50 44/72/51 105/7/83
f 104/73/112 103/69/110 77/70/111
f 113/75/113 64/92/53 56/74/53
f 112/81/117 111/85/89 109/83/97
f 109/83/97 111/85/89 56/84/11
f 115/86/118 113/75/113 111/76/114
f 86/10/86 106/122/116 107/88/115
f 108/12/88 110/13/89 112/81/117
f 114/90/119 59/93/11 64/92/11
f 116/91/120 58/95/11 59/93/11
f 57/94/62 58/95/62 116/91/121
f 110/96/122 116/91/121 115/86/118
f 40/97/65 77/99/126 117/98/123
f 39/101/69 68/109/77 119/100/124
f 77/99/126 79/104/128 118/103/127
f 81/102/125 119/100/124 118/103/127
f 119/100/124 122/106/131 121/105/129
f 69/107/75 117/98/123 120/108/130
f 68/109/77 73/112/79 122/106/131
f 117/98/123 118/103/127 121/105/129
f 92/37/101 27/49/39 26/50/40
